<svg width="18" height="30" viewBox="0 0 18 30" fill="none" xmlns="http://www.w3.org/2000/svg">
<path d="M4.78715 17.2086V17.7086V28.5448C4.78715 29.0718 5.21577 29.5 5.74003 29.5H10.5365C11.0609 29.5 11.4896 29.0717 11.4896 28.5448V17.7084V17.2084H11.9896H15.41C15.9344 17.2084 16.3629 16.7801 16.3629 16.2536V16.2534L16.3647 11.6103C16.3647 11.6102 16.3647 11.6101 16.3647 11.6101C16.3647 11.2647 16.1765 10.9437 15.8732 10.7739L4.78715 17.2086ZM4.78715 17.2086H4.28715M4.78715 17.2086H4.28715M4.28715 17.2086H1.48877C0.964561 17.2086 0.535889 16.7803 0.535889 16.2534V11.61C0.535889 11.083 0.96451 10.6548 1.48877 10.6548H4.28715H4.78715M4.28715 17.2086L4.78715 10.6548M4.78715 10.6548V10.1548M4.78715 10.6548V10.1548M4.78715 10.1548V7.82959C4.78715 5.62973 5.47492 3.80164 6.73548 2.50613L6.73549 2.50612M4.78715 10.1548L6.73549 2.50612M6.73549 2.50612C8.00059 1.20587 9.78296 0.500089 11.9271 0.5C11.9272 0.5 11.9273 0.5 11.9275 0.5L15.5847 0.50595C15.5847 0.50595 15.5847 0.50595 15.5847 0.50595C16.1079 0.506873 16.5359 0.935148 16.5359 1.46118V5.7724C16.5359 6.29963 16.1073 6.72763 15.5835 6.72763H15.5833M6.73549 2.50612L15.5833 6.72763M15.5833 6.72763L13.1205 6.72855C13.1205 6.72855 13.1204 6.72855 13.1204 6.72855C12.3396 6.72857 11.9541 6.87807 11.7628 7.0943L11.7617 7.09547M15.5833 6.72763L11.7617 7.09547M11.7617 7.09547C11.645 7.22826 11.5844 7.40007 11.5484 7.57525C11.5106 7.759 11.4896 7.99953 11.4896 8.31757V10.1546V10.6546M11.7617 7.09547L11.4896 10.6546M11.4896 10.6546H11.9896M11.4896 10.6546H11.9896M11.9896 10.6546H15.3984M11.9896 10.6546H15.3984M15.3984 10.6546C15.5734 10.6546 15.7374 10.6979 15.8731 10.7738L15.3984 10.6546ZM5.54304 28.2413V28.7413H6.04304H10.2335H10.7335V28.2413V16.9212C10.7335 16.6609 10.9457 16.4496 11.2035 16.4496H15.107H15.6068L15.607 15.9498L15.6086 11.9137L15.6088 11.4135H15.1086H11.2033C10.9456 11.4135 10.7335 11.2024 10.7335 10.9419V8.31757C10.7335 7.64041 10.8105 7.02977 11.1961 6.59241L11.1961 6.59232C11.6622 6.06342 12.4349 5.96982 13.1201 5.96982H13.1203L15.2802 5.9689L15.78 5.96869V5.4689V1.76422V1.26504L15.5823 1.26472V1.26468H15.5821V1.26472L15.2808 1.26422L11.9269 1.25873H11.9261C10.0026 1.25873 8.39297 1.87797 7.26489 3.04201C6.13856 4.20425 5.54304 5.85708 5.54304 7.82959V10.9419C5.54304 11.2023 5.3309 11.4135 5.07323 11.4135H1.79178H1.29178V11.9135V15.9496V16.4496H1.79178H5.07323C5.33097 16.4496 5.54304 16.6607 5.54304 16.9212V28.2413Z" fill="white" stroke="white"/>
</svg>
